<svg width="33" height="32" viewBox="0 0 33 32" fill="none" xmlns="http://www.w3.org/2000/svg">
<path d="M17.5 15V27C17.5 27.2652 17.3946 27.5196 17.2071 27.7071C17.0196 27.8946 16.7652 28 16.5 28C16.2348 28 15.9804 27.8946 15.7929 27.7071C15.6054 27.5196 15.5 27.2652 15.5 27V15C15.5 14.7348 15.6054 14.4804 15.7929 14.2929C15.9804 14.1054 16.2348 14 16.5 14C16.7652 14 17.0196 14.1054 17.2071 14.2929C17.3946 14.4804 17.5 14.7348 17.5 15ZM25.5 24C25.2348 24 24.9804 24.1054 24.7929 24.2929C24.6054 24.4804 24.5 24.7348 24.5 25V27C24.5 27.2652 24.6054 27.5196 24.7929 27.7071C24.9804 27.8946 25.2348 28 25.5 28C25.7652 28 26.0196 27.8946 26.2071 27.7071C26.3946 27.5196 26.5 27.2652 26.5 27V25C26.5 24.7348 26.3946 24.4804 26.2071 24.2929C26.0196 24.1054 25.7652 24 25.5 24ZM28.5 20H26.5V5C26.5 4.73478 26.3946 4.48043 26.2071 4.29289C26.0196 4.10536 25.7652 4 25.5 4C25.2348 4 24.9804 4.10536 24.7929 4.29289C24.6054 4.48043 24.5 4.73478 24.5 5V20H22.5C22.2348 20 21.9804 20.1054 21.7929 20.2929C21.6054 20.4804 21.5 20.7348 21.5 21C21.5 21.2652 21.6054 21.5196 21.7929 21.7071C21.9804 21.8946 22.2348 22 22.5 22H28.5C28.7652 22 29.0196 21.8946 29.2071 21.7071C29.3946 21.5196 29.5 21.2652 29.5 21C29.5 20.7348 29.3946 20.4804 29.2071 20.2929C29.0196 20.1054 28.7652 20 28.5 20ZM7.5 20C7.23478 20 6.98043 20.1054 6.79289 20.2929C6.60536 20.4804 6.5 20.7348 6.5 21V27C6.5 27.2652 6.60536 27.5196 6.79289 27.7071C6.98043 27.8946 7.23478 28 7.5 28C7.76522 28 8.01957 27.8946 8.20711 27.7071C8.39464 27.5196 8.5 27.2652 8.5 27V21C8.5 20.7348 8.39464 20.4804 8.20711 20.2929C8.01957 20.1054 7.76522 20 7.5 20ZM10.5 16H8.5V5C8.5 4.73478 8.39464 4.48043 8.20711 4.29289C8.01957 4.10536 7.76522 4 7.5 4C7.23478 4 6.98043 4.10536 6.79289 4.29289C6.60536 4.48043 6.5 4.73478 6.5 5V16H4.5C4.23478 16 3.98043 16.1054 3.79289 16.2929C3.60536 16.4804 3.5 16.7348 3.5 17C3.5 17.2652 3.60536 17.5196 3.79289 17.7071C3.98043 17.8946 4.23478 18 4.5 18H10.5C10.7652 18 11.0196 17.8946 11.2071 17.7071C11.3946 17.5196 11.5 17.2652 11.5 17C11.5 16.7348 11.3946 16.4804 11.2071 16.2929C11.0196 16.1054 10.7652 16 10.5 16ZM19.5 10H17.5V5C17.5 4.73478 17.3946 4.48043 17.2071 4.29289C17.0196 4.10536 16.7652 4 16.5 4C16.2348 4 15.9804 4.10536 15.7929 4.29289C15.6054 4.48043 15.5 4.73478 15.5 5V10H13.5C13.2348 10 12.9804 10.1054 12.7929 10.2929C12.6054 10.4804 12.5 10.7348 12.5 11C12.5 11.2652 12.6054 11.5196 12.7929 11.7071C12.9804 11.8946 13.2348 12 13.5 12H19.5C19.7652 12 20.0196 11.8946 20.2071 11.7071C20.3946 11.5196 20.5 11.2652 20.5 11C20.5 10.7348 20.3946 10.4804 20.2071 10.2929C20.0196 10.1054 19.7652 10 19.5 10Z" fill="white"/>
</svg>
