<svg width="28" height="28" viewBox="0 0 28 28" fill="none" xmlns="http://www.w3.org/2000/svg">
<path d="M10.25 0.25H2.75C2.08696 0.25 1.45107 0.513392 0.982233 0.982233C0.513392 1.45107 0.25 2.08696 0.25 2.75V10.25C0.25 10.913 0.513392 11.5489 0.982233 12.0178C1.45107 12.4866 2.08696 12.75 2.75 12.75H10.25C10.913 12.75 11.5489 12.4866 12.0178 12.0178C12.4866 11.5489 12.75 10.913 12.75 10.25V2.75C12.75 2.08696 12.4866 1.45107 12.0178 0.982233C11.5489 0.513392 10.913 0.25 10.25 0.25ZM10.25 10.25H2.75V2.75H10.25V10.25ZM25.25 0.25H17.75C17.087 0.25 16.4511 0.513392 15.9822 0.982233C15.5134 1.45107 15.25 2.08696 15.25 2.75V10.25C15.25 10.913 15.5134 11.5489 15.9822 12.0178C16.4511 12.4866 17.087 12.75 17.75 12.75H25.25C25.913 12.75 26.5489 12.4866 27.0178 12.0178C27.4866 11.5489 27.75 10.913 27.75 10.25V2.75C27.75 2.08696 27.4866 1.45107 27.0178 0.982233C26.5489 0.513392 25.913 0.25 25.25 0.25ZM25.25 10.25H17.75V2.75H25.25V10.25ZM10.25 15.25H2.75C2.08696 15.25 1.45107 15.5134 0.982233 15.9822C0.513392 16.4511 0.25 17.087 0.25 17.75V25.25C0.25 25.913 0.513392 26.5489 0.982233 27.0178C1.45107 27.4866 2.08696 27.75 2.75 27.75H10.25C10.913 27.75 11.5489 27.4866 12.0178 27.0178C12.4866 26.5489 12.75 25.913 12.75 25.25V17.75C12.75 17.087 12.4866 16.4511 12.0178 15.9822C11.5489 15.5134 10.913 15.25 10.25 15.25ZM10.25 25.25H2.75V17.75H10.25V25.25ZM25.25 15.25H17.75C17.087 15.25 16.4511 15.5134 15.9822 15.9822C15.5134 16.4511 15.25 17.087 15.25 17.75V25.25C15.25 25.913 15.5134 26.5489 15.9822 27.0178C16.4511 27.4866 17.087 27.75 17.75 27.75H25.25C25.913 27.75 26.5489 27.4866 27.0178 27.0178C27.4866 26.5489 27.75 25.913 27.75 25.25V17.75C27.75 17.087 27.4866 16.4511 27.0178 15.9822C26.5489 15.5134 25.913 15.25 25.25 15.25ZM25.25 25.25H17.75V17.75H25.25V25.25Z" fill="currentColor"/>
</svg>
