<svg width="30" height="24" viewBox="0 0 30 24" fill="none" xmlns="http://www.w3.org/2000/svg">
<path d="M8.75 2C8.75 1.66848 8.8817 1.35054 9.11612 1.11612C9.35054 0.881696 9.66848 0.75 10 0.75H28.75C29.0815 0.75 29.3995 0.881696 29.6339 1.11612C29.8683 1.35054 30 1.66848 30 2C30 2.33152 29.8683 2.64946 29.6339 2.88388C29.3995 3.1183 29.0815 3.25 28.75 3.25H10C9.66848 3.25 9.35054 3.1183 9.11612 2.88388C8.8817 2.64946 8.75 2.33152 8.75 2ZM28.75 10.75H10C9.66848 10.75 9.35054 10.8817 9.11612 11.1161C8.8817 11.3505 8.75 11.6685 8.75 12C8.75 12.3315 8.8817 12.6495 9.11612 12.8839C9.35054 13.1183 9.66848 13.25 10 13.25H28.75C29.0815 13.25 29.3995 13.1183 29.6339 12.8839C29.8683 12.6495 30 12.3315 30 12C30 11.6685 29.8683 11.3505 29.6339 11.1161C29.3995 10.8817 29.0815 10.75 28.75 10.75ZM28.75 20.75H10C9.66848 20.75 9.35054 20.8817 9.11612 21.1161C8.8817 21.3505 8.75 21.6685 8.75 22C8.75 22.3315 8.8817 22.6495 9.11612 22.8839C9.35054 23.1183 9.66848 23.25 10 23.25H28.75C29.0815 23.25 29.3995 23.1183 29.6339 22.8839C29.8683 22.6495 30 22.3315 30 22C30 21.6685 29.8683 21.3505 29.6339 21.1161C29.3995 20.8817 29.0815 20.75 28.75 20.75ZM3.75 0.75H1.25C0.918479 0.75 0.600537 0.881696 0.366117 1.11612C0.131696 1.35054 0 1.66848 0 2C0 2.33152 0.131696 2.64946 0.366117 2.88388C0.600537 3.1183 0.918479 3.25 1.25 3.25H3.75C4.08152 3.25 4.39946 3.1183 4.63388 2.88388C4.8683 2.64946 5 2.33152 5 2C5 1.66848 4.8683 1.35054 4.63388 1.11612C4.39946 0.881696 4.08152 0.75 3.75 0.75ZM3.75 10.75H1.25C0.918479 10.75 0.600537 10.8817 0.366117 11.1161C0.131696 11.3505 0 11.6685 0 12C0 12.3315 0.131696 12.6495 0.366117 12.8839C0.600537 13.1183 0.918479 13.25 1.25 13.25H3.75C4.08152 13.25 4.39946 13.1183 4.63388 12.8839C4.8683 12.6495 5 12.3315 5 12C5 11.6685 4.8683 11.3505 4.63388 11.1161C4.39946 10.8817 4.08152 10.75 3.75 10.75ZM3.75 20.75H1.25C0.918479 20.75 0.600537 20.8817 0.366117 21.1161C0.131696 21.3505 0 21.6685 0 22C0 22.3315 0.131696 22.6495 0.366117 22.8839C0.600537 23.1183 0.918479 23.25 1.25 23.25H3.75C4.08152 23.25 4.39946 23.1183 4.63388 22.8839C4.8683 22.6495 5 22.3315 5 22C5 21.6685 4.8683 21.3505 4.63388 21.1161C4.39946 20.8817 4.08152 20.75 3.75 20.75Z" fill="currentColor"/>
</svg>
